<?xml version="1.0" encoding="UTF-8"?>
<svg id="Layer_1" xmlns="http://www.w3.org/2000/svg" version="1.1" viewBox="0 0 1024 523">
  <!-- Generator: Adobe Illustrator 29.8.2, SVG Export Plug-In . SVG Version: 2.1.1 Build 3)  -->
  <defs>
    <style>
      .st0 {
        fill: #dd4d3e;
      }

      .st1 {
        fill: #2d363d;
      }

      .st2 {
        fill: #fff;
      }

      .st3 {
        fill: #bf001a;
      }

      .st4 {
        fill: #f6cb4e;
      }

      .st5 {
        fill: #fdfcfb;
      }
    </style>
  </defs>
  <path class="st1" d="M257.53,433.96c-3.6.17-8.19.9-11.54-.77-2.01-1-3.48-3.13-4.83-4.88-7.17-9.32-13.72-19.27-20.59-28.82-13.69-18.77-27.23-37.65-40.63-56.63-11.32-16.08-23.69-31.51-34.13-48.2-4.94-7.89-8.85-15.9-11.68-24.8-10.41-32.71-8.42-68.4,7.44-99.04,14.73-28.44,41.44-51.24,71.98-60.84,32.39-10.19,69.21-7.2,99.08,9.36,4.03,2.23,8.28,4.69,11.95,7.48,3.36,2.57,6.72,6.22,10.48,8.1.11.06.23.11.35.17,43.16.59,86.4.04,129.56.01l239.14-.06h104.3s29.7-.03,29.7-.03c6.2-.02,12.66-.36,18.82.36,5.52.64,11.63,4.18,15.48,8.12,4.41,4.52,7.69,10.51,8.57,16.78,1.08,7.71.21,16.33.16,24.16l.06,42.46v96.34c0,14.27.5,28.6.18,42.86-.2,8.81-3.17,16.85-9.65,23.01-4.33,4.11-10.01,6.94-15.99,7.45-8.62.74-17.49.34-26.15.34h-44.55s-141.38,0-141.38,0h-236.88s-78.78-.01-78.78-.01c-13.58,0-27.25.31-40.82-.06-.27,0-.54-.02-.81-.04-6.52,8.63-21.31,31.97-28.82,37.18Z"/>
  <path class="st0" d="M260.73,432.39c-1.13,1.08-2.59,1.72-4.15,1.81-3.47.2-7.83.37-10.58-1-2.01-1-3.48-3.13-4.83-4.88-7.17-9.32-13.72-19.27-20.59-28.82-13.69-18.77-27.23-37.65-40.63-56.63-11.32-16.08-23.69-31.51-34.13-48.2-4.94-7.89-8.85-15.9-11.68-24.8-10.41-32.71-8.42-68.4,7.44-99.04,14.73-28.44,41.44-51.24,71.98-60.84,32.39-10.19,69.21-7.2,99.08,9.36,4.03,2.23,8.28,4.69,11.95,7.48,3.36,2.57,6.72,6.21,10.48,8.1.11.06.23.11.35.17,6.11,6.22,12.73,11.85,18.14,18.74,16.4,20.9,24.36,50.93,24.12,77.18-.15,16.22-3.7,34.61-10.36,49.39-6.41,14.23-16.72,26.86-25.79,39.5l-35.48,49.39c-6.57,9.12-13.55,18.09-19.68,27.5-5.98,7.9-17.89,28.23-25.63,35.6Z"/>
  <path class="st4" d="M242.63,146.18c4.65-.24,16.04-1.37,20.04.49,1.46.68.46,4.33,1.05,5.76.18.44,2.27,1.12,2.81,1.35,1.93,2.75-3.32,4.1-3.66,7.4.66,1.25,1.66,1.53,2.82,2.15,1.09.58,1.27,1.11,1.62,2.21-.83,1.65-1.38,1.65-3.01,2.4-.92,1.14-.86,2.45-.93,3.84.86,1.55,1.62,1.38,2.96,2.32.87.6.82.73.99,1.73-.83,1.32-1.72,1.32-3.17,1.81-1.26,1.59-.87,3.16-1.34,5-.37,1.43-2.24,2.45-3.4,3.25l1.13,51.48c8.07.31,16.79.98,23.46,6.09,8.2,6.28,9.68,18.13,7.16,27.62-1.43,5.4-4.89,10.71-3.55,16.5,2.45,10.68,12.22,16.54,14.1,32.01,1.12,8.85-1.32,17.79-6.79,24.84-7.53,9.61-19.72,14.1-31.5,15.55-1.83.31-3.7.47-5.55.6-15.44,1.06-32.95-1.43-44.99-11.99-13.09-11.47-12.97-29.09-5.35-43.67,3.04-5.82,8.25-12.02,9.28-18.6,1.11-7.08-3.98-14.68-4.43-22.03-.4-6.57.99-13.45,5.5-18.46,6.63-7.36,16.34-8.19,25.58-8.66l1.32-51.11-2.92-2.76c-.06-1.37-.02-3.14-.42-4.44-.32-1.04-1.58-1.65-2.46-2.15-.37-.21-.49-.27-.74-.67-.25-.4.07-1.17.17-1.62.95-.69,1.89-1.18,2.96-1.65.14-.44.28-.89.32-1.35.12-1.19,0-2.21-.75-3.18-.67-.33-1.38-.65-1.97-1.13-.86-.71-.75-1.05-.88-2.13.76-1.34,1.62-1.47,3-2.11.66-1.05.91-2.32.64-3.55-.31-1.4-2.25-2.51-3.34-3.3-.35-1.18-.4-1.18.17-2.26.45-.14.9-.28,1.35-.43,2.51-.87,1.63-4.81,2.74-7.14Z"/>
  <path class="st0" d="M249.23,266.89c8.07-1.65,15.97,3.54,17.64,11.61,1.68,8.07-3.49,15.98-11.56,17.68-8.1,1.71-16.04-3.49-17.73-11.59s3.54-16.04,11.65-17.69Z"/>
  <path class="st5" d="M417.06,174.5h20.01s18.02,49.29,18.02,49.29c5.99-16.54,12.61-32.94,19.1-49.29h19.96c-.38,9.76.35,19.6.78,29.33.77,15.37,1.31,30.75,1.6,46.13h-16.34s-.36-31.73-.36-31.73c-.36-6.16-.39-12.33-.07-18.5-6.75,14.84-12.11,30.58-18.16,45.75h-12.72c-5.82-15.4-11.93-30.74-17.23-46.31.22,16.91-.56,33.88-.81,50.79h-15.96c.35-25.16,2.12-50.3,2.17-75.47Z"/>
  <path class="st5" d="M564.59,174.51c10.72.01,23.59-1.19,34.05.56,5.81.97,11.52,3.58,14.96,8.54,3.11,4.49,3.99,10.75,2.93,16.05-1.01,5.06-3.89,8.02-8.02,10.76.25.1.5.21.74.33,4.52,2.05,7.94,5.24,9.61,10.01,2.18,6.21,1.1,12.81-1.67,18.6-.93,1.39-1.98,2.64-3.16,3.83-8.07,8.05-20.64,6.88-31.07,6.84l-18.32-.02-.05-75.48Z"/>
  <path class="st1" d="M580.98,217.98c6.19-.12,14.48-1.15,19.8,2.48,1.49,1.02,2.8,2.49,3.09,4.33.47,3-1.01,6.23-2.72,8.58-5.58,3.95-13.63,2.8-20.17,2.74v-18.13Z"/>
  <path class="st1" d="M580.99,188.4c5.37-.08,12.22-.87,16.94,2.12,1.54.97,2.87,2.45,3.17,4.3.49,3.04-.93,6.07-2.6,8.5-5.15,3.43-11.59,2.67-17.51,2.61v-17.54Z"/>
  <path class="st5" d="M627.84,295.69c6.3-.55,10.39,2.53,15.69,5.16,1.02-.38.37-2.87,1.05-4.13,4.35-.53,9.08-.11,13.48-.06l.07,34.34c0,7.12.73,15.07-.82,22.04-.94,4.24-2.91,8.17-6.01,11.23-5.43,5.36-13.34,7-20.74,6.97-7.27-.04-15.62-2.02-20.83-7.41-1.27-1.32-3.5-4.32-3.47-6.18,4.15-1.56,8.31-3.09,12.49-4.58.18.22.37.44.56.66,2.72,3.15,6.27,5.24,10.5,5.49,3.57.21,7.15-.95,9.78-3.4,4.09-3.81,4.43-8.44,4.57-13.66-3.78,3.46-8.02,5.92-13.18,6.56-5.85.74-11.75-.95-16.33-4.66-5.4-4.35-8.36-10.84-9.12-17.64-.86-7.7.54-16.32,5.51-22.46,4.38-5.4,10.1-7.57,16.81-8.27Z"/>
  <path class="st1" d="M630.38,307.57c2.14-.12,4.6.21,6.54,1.13,3.08,1.45,5.24,4.26,6.28,7.46,1.38,4.23,1.1,9.6-1.03,13.54-1.96,3.62-4.52,5.06-8.35,6.18-2.76.19-5.51.16-7.95-1.32-2.9-1.75-4.7-4.59-5.49-7.84-1.09-4.46-.67-9.73,1.76-13.69,2.07-3.36,4.48-4.58,8.23-5.45Z"/>
  <path class="st5" d="M781.52,172.06h15.38s0,77.89,0,77.89h-14.28c-.04-2.22.12-4.45.22-6.66-1.46,1.64-2.95,3.22-4.77,4.46-5.81,3.97-12.49,3.74-19.08,2.51-2.4-.84-4.79-1.98-6.83-3.52-5.69-4.3-8.84-10.72-9.83-17.69-1.25-8.8.05-18.65,5.61-25.83,3.74-4.82,9.23-8.12,15.33-8.79,7.17-.78,12.78,1.73,18.19,6.16l.07-28.53Z"/>
  <path class="st1" d="M767.24,207.05c2.61-.19,5.33-.08,7.68,1.18,3.14,1.68,5.18,4.61,6.15,8,1.39,4.86,1.16,11.28-1.41,15.73-2.06,3.56-4.62,4.97-8.5,5.98-2.45.05-4.82,0-7.06-1.13-3-1.51-5.09-4.42-6.09-7.57-1.57-4.91-1.31-11.23,1.11-15.83,1.87-3.56,4.35-5.23,8.13-6.35Z"/>
  <path class="st5" d="M484.09,296.39c14.83-2.96,29.24,6.68,32.17,21.51,2.93,14.83-6.73,29.23-21.57,32.13-14.8,2.9-29.15-6.74-32.07-21.53-2.92-14.79,6.68-29.16,21.47-32.11Z"/>
  <path class="st1" d="M485.96,309.11c2.31-.24,4.9-.48,7.14.28,3.13,1.06,5.65,3.52,7.04,6.49,1.88,4.03,2.02,9.2.45,13.35-1.61,4.24-4.1,6.39-8.15,8.2-2.21.2-4.64.31-6.76-.44-3.09-1.08-5.59-3.52-6.97-6.47-1.9-4.06-2.06-9.13-.51-13.33,1.49-4.05,3.96-6.28,7.77-8.09Z"/>
  <path class="st5" d="M647.29,194.18c.25-.02.5-.04.75-.05,7.03-.19,14.66,1.37,19.76,6.54,2.49,2.52,4.11,5.69,4.93,9.12,1.95,8.08.77,30.47.75,40.2h-14.43s-.03-6.82-.03-6.82c-1.09,1.15-2.19,2.35-3.4,3.38-4.2,3.56-10.06,5.07-15.47,4.64-5.52-.44-9.5-2.74-13.06-6.88-.8-1.18-1.38-2.43-1.85-3.77-1.57-4.41-1.1-10.34.95-14.54,4.29-8.84,15.74-8.93,24.2-8.6,2.58.1,5.56.63,8.04-.21.7-1.11.55-2.3.31-3.58-.41-2.22-1.44-4.29-3.39-5.54-2.1-1.34-4.68-1.38-7.04-.86-3.97.87-5.79,2.5-7.92,5.87-4.58-1.44-9.14-2.93-13.68-4.46.98-2.24,1.98-4.37,3.51-6.3,4.39-5.56,10.34-7.37,17.09-8.15Z"/>
  <path class="st1" d="M648.5,227.23c2.63-.07,6.92-.71,9.4,0,1.25.36,1.4.9,1.93,1.97.06,1.44-.61,2.82-1.35,4.02-2.45,3.94-4.96,5.7-9.42,6.7-2.65.15-5.47.28-7.7-1.38-1.28-.96-2.24-2.4-2.41-4.01-.19-1.72.5-3.34,1.62-4.61,2.12-2.4,4.94-2.53,7.93-2.69Z"/>
  <path class="st5" d="M668.41,274l14.13-.02-.07,28.94c.45-.52.92-1.03,1.4-1.52,3.69-3.73,7.89-5.49,13.14-5.51,5.42-.02,10.73,1.02,14.68,5.03,2.34,2.37,3.86,5.43,4.63,8.65,1.93,8.13.73,31.07.7,40.53l-14.45-.03-.03-19.82c.07-5.49,1.26-14.43-2.79-18.63-1.69-1.75-4.09-2.64-6.49-2.68-2.58-.04-5.17.85-7.02,2.68-5.09,5.04-3.12,30.94-3.07,38.46h-14.78s.02-76.08.02-76.08Z"/>
  <path class="st5" d="M709.39,194.59c1.77-.16,3.59-.32,5.37-.3,5.11.05,10.2,1.73,13.84,5.42,2.46,2.49,4.05,5.64,4.85,9.04,1.9,8.02.73,31.37.72,41.23h-14.71c.03-8.89,1.22-26.9-.73-34.55-.68-2.65-2.12-5.12-4.56-6.49-2.99-1.68-6.34-1.08-9.49-.22-.84.49-1.62,1.09-2.3,1.79-4.74,4.82-2.93,31.82-2.88,39.49h-15.41c-.25-18.16-.01-36.34-.02-54.49l13.78-.02.15,5.87c3.46-3.57,6.68-5.38,11.39-6.76Z"/>
  <path class="st5" d="M501.07,195.5l16.57-.03c1.43,5.31,3.48,10.6,5.22,15.83,2.31,6.95,4.45,14.05,7.08,20.88,4.09-12.19,8.05-24.42,11.88-36.69l16.24.02-14.02,37.13c-5.36,13.68-10.59,27.41-15.7,41.19-5.33.12-10.68.03-16.01.03,3.49-8.69,6.86-17.42,10.12-26.2-6.75-17.48-13.97-34.95-21.37-52.16Z"/>
  <path class="st5" d="M412.83,275.13c18.69-.35,37.42-.05,56.11-.04l.03,14.7h-20.11c-.2,13.3-.02,26.64-.02,39.96l.04,20.33-15.99-.02.04-60.29-20.1.13v-14.77Z"/>
  <path class="st5" d="M551.45,295.68c.23-.02.45-.03.68-.04,5.34-.15,10.98,1.14,14.89,4.97,2.46,2.41,4.04,5.5,4.86,8.83,2.07,8.43.7,30.63.88,40.64h-14.68c.04-8.02,1.58-30.49-1.84-36.92-1.02-1.92-2.62-3.65-4.76-4.26-3.07-.88-6.63.38-9.28,1.89-.06.06-.11.11-.17.17-1.25,1.27-2.22,2.82-2.64,4.56-1.75,7.3-.57,26.02-.54,34.59l-14.96-.05-.03-53.42,13.06-.02.1,5.95c4.42-4.56,8.23-6.11,14.42-6.87Z"/>
  <path class="st5" d="M824.35,194.19c4.46-.39,9.23.4,13.3,2.26,5.42,2.47,8.8,6.25,10.88,11.77-4.28,1.06-8.63,1.91-12.94,2.85-1.11-1.9-2.21-3.39-4.3-4.25-2.36-.98-5.01-.95-7.35.08-1.56.71-2.48,1.66-3.06,3.29.62,6.87,16.11,4.79,23.21,11.52,3.25,3.08,5.38,7.06,5.43,11.6.05,4.26-1.76,8.38-4.75,11.39-5.2,5.25-11.99,6.37-19.03,6.42-3.84-.15-7.59-.73-11.1-2.36-6.21-2.87-9.49-7.82-11.75-14.04,4.29-1.23,8.88-1.91,13.26-2.8.81,1.74,1.65,3.53,3.09,4.84,2.2,2,5.57,2.89,8.49,2.7,1.88-.12,4.48-.78,5.67-2.39.68-.92.85-1.8.67-2.9-.96-5.89-16.55-6.31-22.35-10.61-3.32-2.46-4.99-5.99-5.52-10.03-.59-4.5-.11-8.76,2.76-12.43,3.88-4.96,9.45-6.25,15.38-6.92Z"/>
  <path class="st5" d="M729.04,281.61l14.39-.02-.05,15,11.92-.03c-.02,4.34-.02,8.69.01,13.03l-11.84-.03c.02,6.58-.21,13.13-.3,19.71-.03,2.48.43,5.17,2.26,6.98,2.69,2.66,6.22,2.21,9.7,2.21l-.03,8.67c.04.92-.09,1.59-.34,2.47-1.61,1.39-4.76,1.52-6.79,1.53-5.54,0-11.87-1.35-15.87-5.44-5.06-5.18-3.12-28.61-3.07-36.13h-7.41s.08-13.05.08-13.05l7.34.04v-14.94Z"/>
  <path class="st5" d="M583.05,296.61l14.44-.03.02,53.47-14.49.03.04-53.47Z"/>
  <path class="st5" d="M820.51,326.26c1.69-.11,3.59-.42,5.22.12.13.76.2,1.29.71,1.92,2.03-.68,4.08-2.61,6.14-2.66.16,0,.33,0,.49,0,2.15.02,5.48,3.24,6.34,3.05,2.74-.59,3.63-3.08,7.2-3.01,2.22.05,4.28.7,5.83,2.35,4.29,4.55,2.7,16.07,2.63,22.08l-6.41-.07c-.03-4.51.77-9.52.08-13.96-.27-1.76-.72-3.06-2.23-4.14-1.45-.56-2.56-.17-3.99.2-2.8,4.39-1.65,12.77-1.56,17.94l-6.34-.04c-.05-4.65,1.46-13.3-1.15-17.16-.49-.72-1.34-1.36-2.24-1.42-1.15-.08-2.19.25-2.99,1.1-2.95,3.1-1.67,13.26-1.59,17.56l-6.3-.04c.01-7.92-.3-15.94.15-23.84Z"/>
  <path class="st5" d="M803.58,325.83c4.47-.64,8.95,1.17,11.7,4.76,2.76,3.58,3.37,8.37,1.6,12.53-1.77,4.16-5.64,7.04-10.14,7.54-6.79.75-12.93-4.08-13.79-10.85-.86-6.78,3.87-12.99,10.63-13.97Z"/>
  <path class="st1" d="M805.02,331.05c.73.1,1.48.2,2.18.46,1.59.58,2.82,1.92,3.47,3.46.84,1.97.67,4.14-.11,6.1-.98,2.46-2.51,3.32-4.84,4.29-.74-.15-1.49-.32-2.18-.62-1.78-.78-2.95-2.31-3.58-4.11-.69-1.94-.55-4.09.38-5.93,1.04-2.11,2.53-2.94,4.68-3.66Z"/>
  <path class="st5" d="M778.8,325.6c3.18-.14,7.83.72,10.25,2.92,1.06.97,1.06,1.6,1.13,2.93-1.18,1.63-2.67,2.06-4.45,2.9-1.01-.99-2.03-2-3.39-2.49-1.37-.49-3.04-.4-4.32.29-1.59.86-2.59,2.41-3.03,4.13-.51,2-.37,4.27.75,6.05,3.69,5.87,7.58.41,10.26.23.42-.03,1.26.3,1.7.4,1.04.39,1.88.84,2.8,1.46l.18,1.14c-1.25,2.19-4.46,4.21-6.85,4.96-2.99.94-6.11.64-8.88-.82-3.11-1.68-5.42-4.55-6.39-7.95-.97-3.33-.64-7.1,1.11-10.13,2.06-3.55,5.31-5.04,9.12-6.02Z"/>
  <path class="st5" d="M588.56,273.07c4.5-1.09,9.03,1.64,10.19,6.12,1.15,4.48-1.5,9.06-5.96,10.28-2.95.81-6.1-.04-8.25-2.21-2.15-2.17-2.96-5.33-2.13-8.27s3.19-5.2,6.16-5.92Z"/>
  <path class="st5" d="M761.03,342.74c1.45-.29,2.94.23,3.9,1.35.96,1.12,1.24,2.67.73,4.06-.51,1.39-1.73,2.39-3.18,2.62-2.2.35-4.27-1.12-4.66-3.31-.39-2.19,1.04-4.29,3.22-4.73Z"/>
  <g>
    <rect class="st2" x="152.55" y="107.32" width="113.14" height="30.56" transform="translate(-32.77 106.79) rotate(-26.64)"/>
    <rect class="st2" x="281.08" y="130.74" width="23.49" height="22.01"/>
    <path class="st3" d="M295.08,121.48c-11.01-39.43-42.34-70.06-82.1-80.08l-1.49-.38c-13.41-4.76-28.61-4.35-42.38,2.42-27.07,13.31-38.15,46.14-24.85,73.21,2.06,4.19,4.49,7.68,7.43,11.07-4.39,5.93-5.37,14.03-1.89,21.09l2.26,4.6c4.95,10.07,17.14,14.35,27.2,9.41l78.17-38.43c2.56-1.26,4.7-3.03,6.44-5.07l11.15,13.96c-2.44,5.37-2.58,11.7.22,17.39,4.95,10.07,17.14,14.19,27.17,9.26s14.19-17.14,9.26-27.17c-3.27-6.65-9.71-10.7-16.61-11.28l.03-.02ZM257.19,101.89c2.34,4.76.39,10.56-4.37,12.9l-78.2,38.44c-4.76,2.34-10.53.37-12.89-4.42l-2.29-4.67c-2.36-4.79-.39-10.56,4.37-12.9l78.2-38.44c4.76-2.34,10.53-.37,12.89,4.42l2.29,4.67ZM297.72,150.34c-4.76,2.34-10.5.36-12.82-4.37-2.33-4.73-.36-10.5,4.37-12.82,4.73-2.33,10.5-.36,12.82,4.37,2.33,4.73.36,10.5-4.37,12.82Z"/>
  </g>
</svg>