<?xml version="1.0" encoding="utf-8" ?><svg xmlns="http://www.w3.org/2000/svg" xmlns:xlink="http://www.w3.org/1999/xlink" width="1024" height="523" viewBox="0 0 1024 523"><path fill="#2D363D" d="M257.534 433.964C253.929 434.138 249.344 434.867 245.998 433.196C243.993 432.195 242.515 430.063 241.172 428.316C234.006 418.997 227.456 409.046 220.578 399.496C206.892 380.722 193.348 361.845 179.947 342.866C168.625 326.783 156.261 311.354 145.815 294.671C140.872 286.776 136.97 278.77 134.14 269.875C123.733 237.168 125.718 201.473 141.583 170.833C156.312 142.389 183.027 119.594 213.561 109.991C245.952 99.8031 282.77 102.788 312.642 119.346C316.668 121.578 320.925 124.036 324.587 126.829C327.952 129.396 331.305 133.044 335.07 134.925C335.185 134.983 335.302 135.038 335.418 135.094C378.574 135.679 421.814 135.129 464.976 135.106L704.111 135.048L808.412 135.059L838.107 135.021C844.306 135.004 850.762 134.657 856.923 135.376C862.443 136.019 868.554 139.555 872.4 143.493C876.81 148.009 880.09 154.002 880.97 160.274C882.052 167.983 881.175 176.607 881.127 184.435L881.184 226.891L881.187 323.236C881.189 337.509 881.683 351.832 881.366 366.098C881.17 374.911 878.201 382.95 871.714 389.11C867.382 393.223 861.706 396.048 855.725 396.564C847.107 397.307 838.231 396.904 829.578 396.904L785.03 396.889L643.655 396.898L406.771 396.9L327.994 396.887C314.413 396.884 300.741 397.194 287.169 396.827C286.898 396.82 286.628 396.806 286.358 396.786C279.833 405.417 265.052 428.755 257.534 433.964Z"/><path fill="#DD4D3E" d="M257.534 433.964C253.929 434.138 249.344 434.867 245.998 433.196C243.993 432.195 242.515 430.063 241.172 428.316C234.006 418.997 227.456 409.046 220.578 399.496C206.892 380.722 193.348 361.845 179.947 342.866C168.625 326.783 156.261 311.354 145.815 294.671C140.872 286.776 136.97 278.77 134.14 269.875C123.733 237.168 125.718 201.473 141.583 170.833C156.312 142.389 183.027 119.594 213.561 109.991C245.952 99.8031 282.77 102.788 312.642 119.346C316.668 121.578 320.925 124.036 324.587 126.829C327.952 129.396 331.305 133.044 335.07 134.925C335.185 134.983 335.302 135.038 335.418 135.094C341.528 141.317 348.145 146.942 353.556 153.835C369.959 174.732 377.92 204.764 377.672 231.014C377.519 247.235 373.972 265.621 367.313 280.406C360.903 294.638 350.589 307.266 341.521 319.905L306.04 369.29C299.466 378.407 292.494 387.378 286.358 396.786C279.833 405.417 265.052 428.755 257.534 433.964Z"/><path fill="#F6CB4E" d="M242.628 146.176C247.278 145.935 258.671 144.807 262.666 146.664C264.125 147.343 263.128 150.996 263.719 152.425C263.901 152.865 265.988 153.545 266.528 153.776C268.456 156.528 263.205 157.881 262.869 161.181C263.526 162.427 264.525 162.713 265.689 163.332C266.782 163.914 266.96 164.44 267.309 165.54C266.479 167.188 265.934 167.191 264.299 167.943C263.377 169.087 263.437 170.391 263.371 171.787C264.233 173.34 264.99 173.171 266.335 174.109C267.202 174.713 267.153 174.841 267.327 175.837C266.498 177.155 265.609 177.155 264.16 177.644C262.898 179.236 263.287 180.808 262.816 182.643C262.449 184.07 260.58 185.096 259.421 185.889L260.554 237.369C268.627 237.677 277.345 238.351 284.011 243.455C292.215 249.734 293.688 261.585 291.173 271.072C289.741 276.475 286.287 281.777 287.618 287.571C290.07 298.247 299.834 304.112 301.714 319.586C302.839 328.44 300.394 337.379 294.919 344.428C287.387 354.034 275.196 358.526 263.422 359.983C261.597 360.297 259.718 360.453 257.87 360.58C242.432 361.644 224.924 359.147 212.876 348.59C199.786 337.119 199.91 319.504 207.528 304.916C210.565 299.1 215.774 292.9 216.808 286.314C217.921 279.232 212.83 271.638 212.381 264.287C211.979 257.719 213.37 250.835 217.881 245.825C224.513 238.46 234.223 237.635 243.458 237.166L244.774 186.053L241.857 183.295C241.792 181.929 241.837 180.152 241.433 178.85C241.111 177.814 239.853 177.201 238.97 176.698C238.601 176.488 238.476 176.427 238.226 176.032C237.972 175.631 238.292 174.865 238.391 174.414C239.339 173.722 240.277 173.238 241.348 172.762C241.493 172.322 241.627 171.869 241.671 171.407C241.787 170.216 241.664 169.197 240.926 168.227C240.253 167.894 239.541 167.574 238.96 167.093C238.096 166.38 238.213 166.046 238.084 164.966C238.845 163.626 239.703 163.495 241.08 162.859C241.743 161.804 241.994 160.54 241.716 159.304C241.402 157.908 239.465 156.794 238.377 156.005C238.03 154.827 237.98 154.828 238.543 153.746C238.994 153.609 239.442 153.464 239.888 153.313C242.403 152.448 241.514 148.505 242.628 146.176Z"/><path fill="#DD4D3E" d="M249.234 266.895C257.309 265.244 265.199 270.437 266.875 278.507C268.551 286.577 263.381 294.482 255.316 296.182C247.216 297.89 239.271 292.693 237.588 284.589C235.905 276.485 241.124 268.554 249.234 266.895Z"/><path fill="#FDFCFB" d="M417.062 174.499L437.077 174.504L455.097 223.784C461.082 207.241 467.709 190.847 474.201 174.495L494.159 174.504C493.78 184.251 494.508 194.091 494.935 203.828C495.708 219.196 496.242 234.576 496.539 249.961L480.203 249.971L479.84 218.231C479.477 212.072 479.455 205.898 479.773 199.736C473.025 214.578 467.66 230.32 461.611 245.486L448.889 245.474C443.074 230.088 436.956 214.744 431.659 199.174C431.882 216.085 431.101 233.05 430.851 249.966L414.89 249.977C415.24 224.802 417.008 199.67 417.062 174.499Z"/><path fill="#FDFCFB" d="M564.585 174.505C575.305 174.517 588.176 173.318 598.636 175.062C604.444 176.03 610.158 178.646 613.591 183.601C616.706 188.096 617.577 194.354 616.522 199.653C615.516 204.709 612.629 207.671 608.498 210.412C608.747 210.517 608.994 210.626 609.24 210.738C613.764 212.793 617.178 215.978 618.853 220.746C621.033 226.951 619.95 233.552 617.186 239.35C616.26 240.741 615.207 241.995 614.023 243.176C605.95 251.222 593.383 250.053 582.95 250.012L564.635 249.987L564.585 174.505Z"/><path fill="#2D363D" d="M580.981 217.984C587.171 217.861 595.463 216.833 600.783 220.463C602.275 221.48 603.586 222.953 603.875 224.792C604.345 227.788 602.869 231.021 601.16 233.371C595.577 237.319 587.525 236.175 580.992 236.114L580.981 217.984Z"/><path fill="#2D363D" d="M580.989 188.401C586.358 188.32 593.211 187.533 597.928 190.521C599.463 191.494 600.795 192.975 601.094 194.824C601.584 197.861 600.161 200.899 598.496 203.329C593.345 206.759 586.902 205.999 580.986 205.939L580.989 188.401Z"/><path fill="#FDFCFB" d="M627.835 295.687C634.137 295.137 638.23 298.213 643.523 300.845C644.545 300.463 643.893 297.978 644.578 296.712C648.929 296.183 653.662 296.598 658.055 296.655L658.127 330.994C658.136 338.111 658.854 346.067 657.312 353.03C656.373 357.265 654.406 361.197 651.302 364.261C645.871 369.623 637.959 371.265 630.557 371.23C623.291 371.195 614.935 369.209 609.726 363.824C608.454 362.509 606.228 359.508 606.253 357.644C610.403 356.085 614.565 354.559 618.739 353.065C618.923 353.288 619.11 353.509 619.299 353.728C622.022 356.881 625.566 358.969 629.795 359.22C633.362 359.433 636.942 358.267 639.571 355.821C643.66 352.015 644.006 347.378 644.141 342.163C640.362 345.623 636.124 348.086 630.961 348.722C625.11 349.457 619.212 347.773 614.632 344.059C609.233 339.711 606.272 333.22 605.509 326.42C604.644 318.72 606.05 310.099 611.023 303.961C615.401 298.557 621.123 296.393 627.835 295.687Z"/><path fill="#2D363D" d="M630.382 307.573C632.518 307.45 634.98 307.78 636.922 308.699C639.998 310.154 642.167 312.964 643.206 316.158C644.583 320.389 644.31 325.758 642.18 329.698C640.223 333.316 637.664 334.757 633.825 335.874C631.067 336.062 628.318 336.032 625.879 334.556C622.982 332.804 621.182 329.964 620.386 326.716C619.294 322.26 619.716 316.988 622.149 313.027C624.214 309.665 626.633 308.45 630.382 307.573Z"/><path fill="#FDFCFB" d="M781.518 172.063L796.902 172.07L796.896 249.956L782.613 249.943C782.57 247.733 782.737 245.502 782.831 243.293C781.366 244.935 779.884 246.509 778.058 247.758C772.251 251.732 765.57 251.501 758.975 250.272C756.57 249.431 754.183 248.295 752.147 246.756C746.453 242.451 743.305 236.035 742.317 229.065C741.069 220.261 742.366 210.417 747.931 203.231C751.668 198.407 757.161 195.108 763.263 194.441C770.433 193.657 776.041 196.174 781.453 200.597L781.518 172.063Z"/><path fill="#2D363D" d="M767.241 207.053C769.853 206.865 772.569 206.972 774.922 208.229C778.066 209.909 780.099 212.843 781.068 216.225C782.46 221.083 782.229 227.509 779.657 231.957C777.595 235.521 775.041 236.923 771.154 237.934C768.705 237.984 766.333 237.929 764.097 236.803C761.101 235.294 759.008 232.381 758.005 229.237C756.438 224.326 756.691 218.003 759.115 213.403C760.989 209.846 763.466 208.172 767.241 207.053Z"/><path fill="#FDFCFB" d="M484.094 296.394C498.921 293.434 513.336 303.072 516.267 317.905C519.199 332.739 509.533 347.135 494.694 350.038C479.895 352.933 465.546 343.3 462.623 328.506C459.699 313.713 469.306 299.345 484.094 296.394Z"/><path fill="#2D363D" d="M485.963 309.105C488.275 308.862 490.867 308.624 493.105 309.385C496.237 310.448 498.758 312.903 500.14 315.874C502.017 319.906 502.158 325.075 500.587 329.227C498.982 333.469 496.485 335.614 492.436 337.428C490.229 337.632 487.792 337.734 485.676 336.991C482.584 335.906 480.082 333.466 478.703 330.523C476.803 326.467 476.642 321.39 478.191 317.194C479.685 313.148 482.151 310.916 485.963 309.105Z"/><path fill="#FDFCFB" d="M647.291 194.182C647.54 194.159 647.79 194.142 648.04 194.135C655.068 193.948 662.699 195.505 667.799 200.672C670.286 203.191 671.905 206.359 672.731 209.787C674.677 217.867 673.503 240.255 673.485 249.985L659.05 249.983L659.021 243.169C657.931 244.323 656.828 245.522 655.617 246.55C651.422 250.109 645.559 251.622 640.143 251.192C634.622 250.755 630.647 248.447 627.084 244.316C626.288 243.133 625.706 241.885 625.229 240.543C623.661 236.13 624.134 230.204 626.174 226.004C630.468 217.163 641.915 217.079 650.376 217.404C652.957 217.504 655.939 218.03 658.42 217.199C659.118 216.092 658.967 214.898 658.73 213.621C658.318 211.402 657.288 209.326 655.341 208.08C653.243 206.738 650.663 206.704 648.303 207.221C644.329 208.092 642.517 209.718 640.38 213.09C635.805 211.645 631.243 210.16 626.695 208.633C627.674 206.388 628.675 204.267 630.205 202.328C634.592 196.767 640.547 194.955 647.291 194.182Z"/><path fill="#2D363D" d="M648.499 227.229C651.128 227.158 655.424 226.516 657.898 227.238C659.148 227.603 659.294 228.138 659.833 229.213C659.89 230.65 659.222 232.031 658.478 233.229C656.027 237.174 653.518 238.926 649.059 239.925C646.412 240.076 643.588 240.204 641.361 238.546C640.077 237.59 639.126 236.141 638.949 234.531C638.76 232.815 639.447 231.192 640.568 229.919C642.684 227.517 645.51 227.389 648.499 227.229Z"/><path fill="#FDFCFB" d="M668.405 273.998L682.537 273.981L682.468 302.922C682.918 302.4 683.385 301.894 683.868 301.402C687.556 297.671 691.755 295.912 697.009 295.892C702.433 295.871 707.737 296.916 711.689 300.925C714.026 303.295 715.554 306.354 716.319 309.576C718.246 317.705 717.052 340.648 717.019 350.105L702.565 350.071L702.535 330.25C702.603 324.755 703.79 315.819 699.742 311.62C698.054 309.869 695.653 308.98 693.247 308.942C690.67 308.902 688.079 309.789 686.23 311.62C681.143 316.657 683.107 342.563 683.165 350.078L668.382 350.075L668.405 273.998Z"/><path fill="#FDFCFB" d="M709.389 194.586C711.16 194.427 712.98 194.268 714.76 194.287C719.873 194.34 724.961 196.021 728.599 199.711C731.058 202.206 732.648 205.354 733.451 208.75C735.347 216.769 734.177 240.118 734.171 249.976L719.458 249.976C719.488 241.087 720.683 223.078 718.73 215.427C718.052 212.774 716.607 210.306 714.168 208.937C711.176 207.257 707.831 207.861 704.681 208.716C703.837 209.206 703.062 209.807 702.377 210.502C697.637 215.326 699.451 242.323 699.493 249.995L684.087 249.986C683.841 231.837 684.074 213.653 684.071 195.5L697.847 195.478L697.999 201.347C701.456 197.777 704.684 195.967 709.389 194.586Z"/><path fill="#FDFCFB" d="M501.067 195.503L517.633 195.469C519.065 200.775 521.112 206.07 522.852 211.296C525.166 218.248 527.301 225.344 529.928 232.178C534.017 219.99 537.976 207.759 541.805 195.486L558.049 195.51L544.028 232.642C538.669 246.324 533.436 260.056 528.329 273.835C523.002 273.951 517.65 273.864 512.321 273.869C515.812 265.182 519.185 256.447 522.438 247.668C515.685 230.188 508.471 212.719 501.067 195.503Z"/><path fill="#FDFCFB" d="M412.831 275.133C431.517 274.786 450.252 275.081 468.943 275.096L468.977 289.794L448.87 289.785C448.668 303.095 448.851 316.436 448.845 329.75L448.887 350.082L432.898 350.061L432.936 289.772L412.837 289.903L412.831 275.133Z"/><path fill="#FDFCFB" d="M551.447 295.684C551.673 295.666 551.899 295.655 552.125 295.648C557.462 295.495 563.108 296.785 567.017 300.614C569.481 303.027 571.06 306.116 571.876 309.446C573.944 317.881 572.577 340.074 572.752 350.09L558.073 350.077C558.114 342.066 559.657 319.596 556.235 313.172C555.214 311.256 553.618 309.52 551.474 308.907C548.407 308.032 544.842 309.287 542.198 310.796C542.141 310.851 542.084 310.905 542.029 310.961C540.778 312.227 539.81 313.778 539.394 315.517C537.646 322.817 538.821 341.538 538.857 350.104L523.895 350.052L523.865 296.628L536.929 296.604L537.029 302.55C541.445 297.994 545.257 296.438 551.447 295.684Z"/><path fill="#FDFCFB" d="M824.346 194.192C828.809 193.806 833.574 194.596 837.643 196.447C843.067 198.915 846.444 202.697 848.526 208.216C844.246 209.272 839.896 210.125 835.588 211.065C834.481 209.168 833.381 207.679 831.288 206.815C828.933 205.831 826.275 205.861 823.942 206.899C822.382 207.604 821.464 208.556 820.878 210.192C821.499 217.057 836.991 214.987 844.089 221.712C847.342 224.794 849.472 228.773 849.52 233.316C849.566 237.579 847.759 241.697 844.774 244.709C839.575 249.955 832.786 251.079 825.743 251.125C821.901 250.976 818.155 250.395 814.638 248.768C808.425 245.894 805.148 240.944 802.891 234.727C807.184 233.493 811.771 232.816 816.155 231.926C816.964 233.664 817.806 235.453 819.249 236.765C821.447 238.763 824.822 239.659 827.741 239.469C829.623 239.347 832.224 238.687 833.41 237.081C834.092 236.158 834.264 235.284 834.083 234.178C833.119 228.287 817.529 227.865 811.729 223.57C808.407 221.11 806.738 217.577 806.209 213.538C805.62 209.036 806.097 204.778 808.968 201.108C812.847 196.148 818.422 194.862 824.346 194.192Z"/><path fill="#FDFCFB" d="M729.036 281.608L743.421 281.586L743.376 296.585L755.295 296.558C755.27 300.901 755.275 305.245 755.309 309.589L743.469 309.555C743.493 316.137 743.26 322.685 743.171 329.261C743.137 331.736 743.599 334.433 745.429 336.244C748.119 338.904 751.645 338.455 755.127 338.455L755.094 347.125C755.131 348.045 755.007 348.714 754.751 349.596C753.141 350.984 749.992 351.121 747.956 351.123C742.413 351.127 736.087 349.775 732.09 345.685C727.029 340.507 728.969 317.074 729.017 309.559L721.61 309.568L721.694 296.505L729.031 296.548L729.036 281.608Z"/><path fill="#FDFCFB" d="M583.049 296.611L597.49 296.578L597.505 350.045L583.01 350.079L583.049 296.611Z"/><path fill="#FDFCFB" d="M820.511 326.258C822.203 326.15 824.101 325.84 825.73 326.377C825.858 327.142 825.93 327.671 826.435 328.296C828.466 327.613 830.518 325.69 832.575 325.635C832.739 325.63 832.904 325.64 833.068 325.642C835.221 325.666 838.551 328.881 839.404 328.697C842.144 328.106 843.032 325.616 846.605 325.691C848.824 325.737 850.883 326.389 852.437 328.036C856.731 332.584 855.139 344.106 855.07 350.121L848.665 350.056C848.633 345.547 849.431 340.532 848.743 336.095C848.471 334.339 848.023 333.038 846.516 331.959C845.071 331.401 843.953 331.79 842.526 332.161C839.724 336.556 840.879 344.928 840.965 350.106L834.621 350.066C834.568 345.417 836.081 336.769 833.473 332.904C832.985 332.182 832.133 331.545 831.237 331.485C830.083 331.406 829.048 331.738 828.242 332.585C825.292 335.684 826.567 345.849 826.655 350.14L820.358 350.1C820.37 342.179 820.054 334.161 820.511 326.258Z"/><path fill="#FDFCFB" d="M803.583 325.83C808.056 325.185 812.529 327.003 815.285 330.585C818.041 334.167 818.651 338.956 816.881 343.115C815.111 347.273 811.236 350.154 806.744 350.65C799.956 351.401 793.819 346.57 792.957 339.795C792.094 333.02 796.823 326.805 803.583 325.83Z"/><path fill="#2D363D" d="M805.021 331.047C805.755 331.143 806.502 331.25 807.2 331.507C808.792 332.091 810.016 333.431 810.674 334.971C811.515 336.94 811.349 339.112 810.568 341.072C809.585 343.536 808.056 344.387 805.725 345.364C804.984 345.213 804.237 345.046 803.542 344.741C801.757 343.959 800.596 342.434 799.959 340.631C799.267 338.687 799.404 336.544 800.337 334.703C801.38 332.596 802.862 331.763 805.021 331.047Z"/><path fill="#FDFCFB" d="M778.803 325.597C781.98 325.454 786.637 326.315 789.055 328.517C790.116 329.483 790.119 330.113 790.187 331.451C789.007 333.079 787.518 333.506 785.742 334.35C784.735 333.356 783.713 332.347 782.351 331.861C780.981 331.374 779.312 331.459 778.034 332.148C776.441 333.006 775.446 334.558 775.004 336.277C774.491 338.278 774.633 340.543 775.751 342.325C779.437 348.199 783.326 342.739 786.01 342.554C786.428 342.525 787.267 342.852 787.707 342.956C788.742 343.348 789.589 343.797 790.503 344.421L790.683 345.565C789.432 347.752 786.219 349.773 783.837 350.523C780.847 351.464 777.729 351.16 774.955 349.7C771.841 348.02 769.537 345.153 768.569 341.749C767.6 338.414 767.93 334.644 769.682 331.619C771.74 328.066 774.988 326.581 778.803 325.597Z"/><path fill="#FDFCFB" d="M588.557 273.068C593.054 271.981 597.59 274.705 598.744 279.184C599.898 283.664 597.243 288.24 592.782 289.462C589.835 290.269 586.682 289.426 584.532 287.256C582.381 285.086 581.567 281.925 582.401 278.986C583.235 276.047 585.588 273.785 588.557 273.068Z"/><path fill="#FDFCFB" d="M761.03 342.74C762.478 342.452 763.968 342.968 764.928 344.09C765.888 345.212 766.167 346.764 765.658 348.15C765.149 349.536 763.931 350.539 762.473 350.773C760.277 351.126 758.203 349.654 757.809 347.465C757.416 345.275 758.848 343.174 761.03 342.74Z"/></svg>
